<svg width="373" height="476" viewBox="0 0 373 476" fill="none" xmlns="http://www.w3.org/2000/svg">
<path d="M184.27 138.238C183.419 141.193 182.371 143.965 181.109 146.507C179.843 149.058 178.361 151.378 176.643 153.417C166.56 165.391 174.459 145.363 186.886 123.404C195.732 107.773 206.871 91.1649 215.453 84.4221C253.773 54.3136 286.53 14.186 336.733 3.0297C385.486 -7.80418 373.456 69.9768 351.287 89.8123C304.054 132.073 241.429 122.617 184.27 138.238Z" fill="black"/>
<path d="M137.834 128.622C125.146 112.762 60.8467 13.6339 96.868 12.1931C139.659 10.4815 151.085 8.87923 171.792 46.1515C185.224 70.328 196.253 130.131 176.643 153.417C159.383 173.914 194.814 100.638 215.453 84.4221C253.773 54.3136 286.53 14.186 336.733 3.0297C385.486 -7.80418 373.456 69.9768 351.287 89.8123C303.438 132.625 239.791 122.361 182.034 138.863C178.444 139.889 186.346 203.449 186.346 215.944" stroke="black" stroke-width="3" stroke-linecap="round"/>
<path d="M65.4077 237.571C84.7164 234.6 103.297 232.357 121.868 230.739C193.324 202.434 299.714 182.11 337.614 229.485C376.286 277.826 221.818 285.544 192.078 285.544C140.274 285.544 91.992 288.129 43.3077 268.295C13.6458 256.211 51.5325 239.705 65.4077 237.571Z" fill="black"/>
<path d="M206.093 227.329C156.414 227.329 113.135 230.228 65.4077 237.571C51.5325 239.705 13.6458 256.211 43.3077 268.295C91.992 288.129 140.274 285.544 192.078 285.544C221.818 285.544 376.286 277.826 337.614 229.485C288.489 168.079 124.297 220.411 70.2589 256.437" stroke="black" stroke-width="3" stroke-linecap="round"/>
<path d="M2 283.86C2 318.403 11.7024 350.096 11.7024 386.275C11.7024 472.56 110.15 468.206 175.026 468.206C227.663 468.206 341.584 496.121 341.584 429.396C341.584 378.707 322.179 331.029 322.179 283.86" stroke="black" stroke-width="3" stroke-linecap="round"/>
</svg>
