<svg width="434" height="555" viewBox="0 0 434 555" fill="none" xmlns="http://www.w3.org/2000/svg">
<path d="M214.624 160.926C213.631 164.373 212.409 167.607 210.937 170.572C209.46 173.548 207.73 176.254 205.727 178.633C193.965 192.601 203.179 169.237 217.676 143.621C227.994 125.388 240.989 106.014 251 98.148C295.701 63.0255 333.913 16.2154 392.477 3.20118C449.348 -9.43689 435.315 81.2972 409.454 104.436C354.356 153.734 281.302 142.704 214.624 160.926Z" fill="white"/>
<path d="M160.454 149.709C145.653 131.207 70.6465 15.5714 112.667 13.8906C162.583 11.8939 175.913 10.0248 200.068 53.5042C215.736 81.7068 228.602 151.469 205.727 178.633C185.592 202.543 226.924 117.065 251 98.148C295.701 63.0255 333.913 16.2154 392.477 3.20118C449.348 -9.43689 435.315 81.2972 409.454 104.436C353.637 154.378 279.391 142.405 212.015 161.656C207.828 162.852 217.045 236.997 217.045 251.572" stroke="white" stroke-width="3" stroke-linecap="round"/>
<path d="M75.9673 276.801C98.4915 273.335 120.167 270.719 141.83 268.831C225.186 235.812 349.293 212.104 393.505 267.369C438.617 323.759 258.424 332.763 223.732 332.763C163.301 332.763 106.979 335.779 50.187 312.642C15.5854 298.545 59.7814 279.291 75.9673 276.801Z" fill="white"/>
<path d="M240.081 264.854C182.129 264.854 131.642 268.235 75.9673 276.801C59.7814 279.291 15.5854 298.545 50.187 312.642C106.979 335.779 163.301 332.763 223.732 332.763C258.424 332.763 438.617 323.759 393.505 267.369C336.199 195.736 144.664 256.783 81.6263 298.808" stroke="white" stroke-width="3" stroke-linecap="round"/>
<path d="M2 330.799C2 371.094 13.3182 408.065 13.3182 450.269C13.3182 550.923 128.16 545.845 203.841 545.845C265.243 545.845 398.136 578.408 398.136 500.572C398.136 441.441 375.5 385.823 375.5 330.799" stroke="white" stroke-width="3" stroke-linecap="round"/>
</svg>
